Patient4_TMGait_0pt7_01_left_44_EMG.mot
version=1
nRows=26
nColumns=33
inDegrees=no
endheader
time	1LAddLong	2LGlutMax	3LGlutMed	4LIliopsoas	5LSemiMemb	6LBicFemLong	7LRecFem	8LVastMed	9LVastLat	10LGasMed	11LTibAnt	12lTibPost	13LPeroneusLong	14LSol	15LExtDigLong	16LFlexDigLong	17RAddLong	18RGlutMax	19RGlutMed	20RIliopsoas	21RSemiMemb	22RBicFemLong	23RRecFem	24RVastMed	25RVastLat	26RGasMed	27RTibAnt	28RTibPost	29RPeroneusLong	30RSol	31RExtDigLong	32RFlexDigLong
52.25	0.005493	0.024109	-0.017395	-0.003815	-0.022736	-0.010834	0.066528	-0.006866	0.080872	-0.014343	0.011597	0.006714	0.054016	-0.034637	0.006714	-0.003815	-0.031891	-0.38864	0.32684	0.033264	-0.072479	-0.01709	0.33279	0.22232	-0.18784	-0.032043	-0.055084	-0.003357	-1.2624	0.13016	-0.004425	-0.023956
52.251	0.007324	-0.003815	-0.012207	-0.009766	-0.015717	-0.007935	0.13123	-0.004883	0.078735	-0.03891	0.010071	0.00824	0.065002	-0.044098	0.003815	-0.006561	-0.034027	-0.37354	0.086365	0.00351	0.00824	0.066223	0.41412	0.11475	-0.32105	0.080566	-0.025177	-0.060883	-0.7103	0.11459	-0.001831	-0.027618
52.252	0.008392	0.005951	0.000153	-0.00061	-0.01358	-0.002747	0.10971	0.006866	0.066833	-0.021667	0.010223	0.009308	0.071564	-0.021057	-0.005798	0.004425	-0.019836	-0.42221	0.045166	-0.037079	0.11704	0.014038	0.25177	0.079803	0.18509	0.056458	-0.023193	-0.18112	0.41748	0.27466	-0.00412	-0.028381
52.253	0.001984	-0.001526	-0.029449	-0.011292	-0.009766	0.02182	0.083313	0.005341	0.045776	-0.017242	0.013123	0.005493	0.048218	-0.051727	-0.008698	0	-0.014343	-0.48035	0.098724	-0.040741	0.23315	0.16968	-0.17578	-0.058746	0.69183	0.000458	-0.052948	0.20874	0.31387	0.003204	-0.003357	-0.036163
52.254	0.007782	-0.00061	-0.033722	-0.00885	-0.041199	-0.005798	0.021057	0.003662	0.048065	-0.015259	0.023193	-0.010223	0.026855	-0.042267	-0.006409	0.000458	-0.023956	-0.37262	0.056763	-0.054321	0.23514	0.18509	-0.4306	0.008392	0.88531	-0.002747	-0.001068	0.17822	0.14496	-0.47806	-0.001984	-0.042419
52.255	-0.011139	0.028839	-0.045776	-0.008087	-0.037994	-0.049438	0.034332	0.005798	0.041046	-0.00412	0.016327	-0.007782	0.027771	0.022583	0.006256	0.003357	0.006256	-0.28336	-0.009613	-0.058136	0.16403	0.095215	-0.4039	0.089722	0.76904	0.000916	0.075378	0.051422	-0.11459	-0.54428	-0.003815	-0.033722
52.256	0.001221	0.053711	-0.080719	0.005035	-0.039825	-0.037231	0.037842	0.007172	0.040894	0.003662	0.01297	-0.00885	0.016174	-0.096436	0.001373	0.005798	0.021667	-0.19348	0.13962	-0.041351	0.045013	0.082397	-0.53574	0.14786	0.40924	-0.007935	0.11749	0.032806	0.099945	-0.34347	0.000763	-0.026855
52.257	0.012512	0.026855	-0.11871	-0.006104	0.016785	-0.084534	0.019836	0.002747	0.037842	-0.011597	0.007782	-0.010986	-0.011292	-0.16937	-0.00061	-0.005035	0.024261	-0.22461	-0.053711	-0.055237	0.001831	0.07431	-0.49667	0.10635	0.22217	-0.031433	-0.033569	0.035248	1.0042	0.18021	0.000763	-0.02243
52.258	0.010223	0.009613	-0.12238	0.007782	0.035706	-0.055389	0.021515	0.00412	0.035706	-0.030518	0.019684	-0.017548	0.00351	-0.12207	0.000763	0.009003	-0.005951	-0.18036	-0.11963	0.019836	0.030212	0.028534	-0.36423	0.16342	-0.15259	-0.028381	0.020905	0.031891	-0.78171	0.28931	-0.003052	-0.035858
52.259	0.017853	0.004272	-0.15533	-0.002289	0.018311	-0.04776	0.027161	0.00351	0.027313	-0.039215	0.010071	-0.012665	0.024414	-0.051727	-0.003052	0.00061	0.001221	-0.057831	0.27588	0.039063	0.017395	-0.06546	0.16739	0.005035	-0.9346	-0.008087	0.051575	0.022278	-0.17349	0.18601	-0.001373	-0.028534
52.26	0.019836	-0.008698	-0.11215	0.003052	-0.010834	-0.042419	0.011444	0.002594	0.026398	-0.045929	0.01297	-0.019836	0.081024	0	0.001526	-0.000305	0.006866	0.057983	0.16647	0.058289	-0.027924	-0.12634	0.30258	-0.25467	-0.89035	-0.00412	-0.007172	0.012512	1.474	0.12665	-0.002899	-0.03479
52.261	0.00885	0.024567	-0.1004	0.006866	-0.020142	-0.039978	0.023499	-0.002441	0.027313	-0.035706	0.014801	-0.019836	0.097809	0.074463	-0.010986	0.005798	0.011139	0.13275	0.27512	0.059967	-0.047455	-0.14496	0.098114	-0.27405	-0.28839	-0.008545	-0.091248	0.005035	1.0745	0.14725	-0.001526	-0.029297
52.262	0.00824	0.050354	0.024414	0.012207	-0.02121	-0.043182	0.029755	-0.002747	0.028839	-0.042419	0.01236	-0.016479	0.085754	-0.096436	-0.018921	-0.021515	0.010376	0.2092	0.46127	0.067444	-0.044556	-0.12665	0.000305	-0.168	-0.082092	-0.004883	-0.11704	0.005035	0.12604	0.040436	-0.002289	-0.026703
52.263	0.009918	0.071259	0.081635	-0.006561	-0.027466	-0.038147	0.045776	-0.007629	0.017395	-0.029755	0.019073	-0.011444	0.073547	-0.38422	-0.010834	-0.00885	0.019073	0.15305	-0.34958	0.11063	-0.086212	-0.14725	0.072327	-0.1622	-0.14358	-0.007782	0.14038	0.007477	-1.1034	-0.11124	-0.005493	-0.026703
52.264	0.001068	0.028687	0.081787	0.005493	-0.01236	-0.02533	0.02243	0.002899	0.016785	0.002747	0.012512	-0.015411	0.043945	-0.34882	0.010376	-0.005798	0.03952	0.16953	-0.39154	0.027161	-0.14938	-0.15778	0.21805	-0.17319	-0.16068	-0.002747	-0.003052	0.009308	-0.51804	-0.24551	0.00061	-0.022888
52.265	0.002289	0.055237	0.043182	-0.002899	0.004272	-0.003204	0.019684	0.007629	0.018616	-0.00061	0.017395	-0.004272	0.015411	-0.085907	0.009003	-0.010681	0.03006	0.23438	0.21698	-0.070496	-0.13763	-0.044403	0.19638	-0.16281	-0.14099	0.00061	-0.1178	0.00473	-0.19409	-0.10803	-0.00061	-0.002441
52.266	0.005951	0.019379	0.024567	-0.010681	0.007019	-0.022583	0.023804	0.010681	0.015564	-0.027008	0.016479	-0.015106	0.00946	0.060883	0.014038	-0.003815	0.007477	0.17944	0.52643	-0.10513	-0.061493	0.039063	0.2327	-0.10254	-0.11963	-0.004883	-0.073242	0.002441	0.30411	-0.078735	0.00412	-0.016785
52.267	0.001984	0.048523	-0.002747	-0.001526	-0.04425	-0.005798	0.011444	0.005798	0.017853	-0.077057	0.003967	-0.010376	0.005951	0.084076	-0.001678	0.013885	0.003662	0.30609	0.81329	-0.024261	0.068817	0.024414	0.038147	-0.088196	-0.11231	-0.010834	0.033264	0.006714	-0.44693	-0.16327	-0.007172	-0.020447
52.268	0.009918	0.079193	-0.005035	-0.013275	-0.052795	-0.018158	0.014038	-0.019684	0.011749	-0.067444	0.004578	-0.019684	0.034332	0.035706	-0.009613	0.003967	-0.003815	0.44037	0.38605	0.094147	0.094147	0.033264	-0.15396	-0.036163	-0.056152	-0.010376	0.050354	0.011902	-1.5244	-0.13138	-0.000763	-0.025635
52.269	0.015564	0.066528	-0.00946	0.011292	0.017395	-0.037384	0.005798	0.005035	0.014496	-0.095673	-0.002136	-0.011139	0.063782	-0.087128	-0.0177	-0.000458	0.02182	0.36835	-0.45395	0.1181	0.05127	0.023956	0.076141	0.004425	0.005188	-0.008392	0.042114	0.01358	-1.0071	-0.033875	-0.006104	-0.009155
52.27	0.018921	0.04715	-0.02655	0.004425	0.043793	0.001526	0.008392	0.000458	0.016022	-0.070801	0.001984	-0.01709	0.062561	-0.074768	-0.006256	-0.011444	0.02121	0.28107	-0.40344	0.04776	0.031128	0.008087	0.24155	-0.031281	0.000305	0.002594	0.023193	0.011292	-0.15137	-0.20081	-0.002289	-0.019379
52.271	0.008392	0.074005	-0.060883	0.001831	0.019836	0.004883	0.015411	0.013885	0.018158	-0.029449	0.023499	-0.018158	0.071106	0.080414	0.026398	0.000153	0.009613	0.1619	-0.67169	0.029144	0.044556	-0.037537	0.1236	-0.002899	0.0354	0.001984	0.050964	-0.016632	-1.5062	-0.26733	0.003815	-0.023499
52.272	0.004425	0.054779	-0.076141	0.002594	0.005493	0.007019	0.018921	0.010223	0.015106	0.002594	0.033417	-0.018616	0.077209	0.10407	0.023499	0.007629	0.006256	-0.085907	-1.2936	-0.03067	0.040588	-0.11505	-0.065002	-0.12528	0.010834	-0.000305	0.097351	-0.012054	1.1134	-0.13062	-0.001373	-0.017853
52.273	0.000458	0.060883	-0.09903	-0.012054	-0.00061	0.010376	0.019531	0.008087	0.018005	-0.006409	0.017242	-0.016937	0.065155	-0.053711	0.010986	0.006409	0.022125	-0.18951	-1.6989	-0.1152	-0.018768	-0.087433	0.002441	-0.036316	-0.024109	0.004578	-0.012512	-0.010071	3.1459	-0.11108	-0.004883	-0.022888
52.274	0.004425	0.053406	-0.082855	-0.011749	-0.003357	0.001831	0.031738	0.011444	0.004272	-0.012054	0.0177	-0.012054	0.065918	-0.070343	0.002136	0.018158	0.013733	-0.17303	-1.0185	-0.13412	-0.097961	-0.11536	0.048218	0.017395	-0.028076	-0.012054	0.001678	-0.000458	0.66971	-0.11154	-0.003357	-0.021973
52.275	0	0.10025	-0.018616	-0.018005	-0.003967	-0.013733	0.025177	-0.002899	0.002136	-0.011902	0.007629	-0.008392	0.059357	0.005951	-0.024109	0.014038	0.007629	-0.023651	-0.43366	0.012512	-0.090332	-0.19699	0.00824	-0.083771	-0.040436	-0.057678	0.088806	-0.01236	-0.86212	0.022278	-0.005188	-0.02533
